<?xml version="1.0" encoding="iso-8859-1"?>
<!-- Generator: Adobe Illustrator 18.0.0, SVG Export Plug-In . SVG Version: 6.00 Build 0)  -->
<!DOCTYPE svg PUBLIC "-//W3C//DTD SVG 1.1//EN" "http://www.w3.org/Graphics/SVG/1.1/DTD/svg11.dtd">
<svg version="1.1" id="Capa_1" xmlns="http://www.w3.org/2000/svg" xmlns:xlink="http://www.w3.org/1999/xlink" x="0px" y="0px"
	 viewBox="0 0 60 60" style="enable-background:new 0 0 60 60;" xml:space="preserve">
<g>
	<path d="M39,4.499h17.414L51.34,9.573l7.141,8.926H59v-16h-0.586l-0.069,0.069C58.236,2.529,58.122,2.499,58,2.499H39
		c-0.553,0-1,0.447-1,1S38.447,4.499,39,4.499z"/>
	<polygon points="9,18.499 9,12.35 4.081,18.499 	"/>
	<polygon points="51,18.499 55.919,18.499 51,12.35 	"/>
	<path d="M8.66,9.573L3.586,4.499H21c0.553,0,1-0.447,1-1s-0.447-1-1-1H2c-0.122,0-0.236,0.029-0.345,0.069L1.586,2.499H1v16h0.519
		L8.66,9.573z"/>
	<path d="M31,19.499V3.913l5.293,5.293C36.488,9.402,36.744,9.499,37,9.499s0.512-0.098,0.707-0.293
		c0.391-0.391,0.391-1.023,0-1.414l-6.999-6.999c-0.092-0.093-0.203-0.166-0.326-0.217c-0.244-0.101-0.519-0.101-0.764,0
		c-0.123,0.051-0.234,0.125-0.326,0.217l-6.999,6.999c-0.391,0.391-0.391,1.023,0,1.414C22.488,9.402,22.744,9.499,23,9.499
		s0.512-0.098,0.707-0.293L29,3.913v15.586H0v35.259c0,2.614,2.127,4.741,4.741,4.741h50.518c2.614,0,4.741-2.127,4.741-4.741
		V19.499H31z M16,28.499c0,0.553-0.447,1-1,1s-1-0.447-1-1c0-2.206,1.794-4,4-4s4,1.794,4,4c0,0.553-0.447,1-1,1s-1-0.447-1-1
		c0-1.103-0.897-2-2-2S16,27.397,16,28.499z M43,38.499c0,7.168-5.832,13-13,13s-13-5.832-13-13v-6c0-0.553,0.447-1,1-1s1,0.447,1,1
		v6c0,6.065,4.935,11,11,11s11-4.935,11-11v-6c0-0.553,0.447-1,1-1s1,0.447,1,1V38.499z M42,26.499c-1.103,0-2,0.897-2,2
		c0,0.553-0.447,1-1,1s-1-0.447-1-1c0-2.206,1.794-4,4-4s4,1.794,4,4c0,0.553-0.447,1-1,1s-1-0.447-1-1
		C44,27.397,43.103,26.499,42,26.499z"/>
</g>
<g>
</g>
<g>
</g>
<g>
</g>
<g>
</g>
<g>
</g>
<g>
</g>
<g>
</g>
<g>
</g>
<g>
</g>
<g>
</g>
<g>
</g>
<g>
</g>
<g>
</g>
<g>
</g>
<g>
</g>
</svg>
